HIERARCHY
ROOT root
{
	OFFSET	0	13.1	24.9
	CHANNELS 6  Xposition Yposition Zposition Xrotation Yrotation Zrotation
	JOINT spine_1
	{
		OFFSET	0	9.99999	0
		CHANNELS 3  Xrotation Yrotation Zrotation
		JOINT spine_2
		{
			OFFSET	0	112	-10
			CHANNELS 3  Xrotation Yrotation Zrotation
			JOINT spine_3
			{
				OFFSET	0	206.5	19.3
				CHANNELS 3  Xrotation Yrotation Zrotation
				JOINT spine_4
				{
					OFFSET	0	110.4	14.6
					CHANNELS 3  Xrotation Yrotation Zrotation
					JOINT neck_1
					{
						OFFSET	0	71.8	-50.3
						CHANNELS 3  Xrotation Yrotation Zrotation
						JOINT neck_2
						{
							OFFSET	0	86.2	-25.8
							CHANNELS 3  Xrotation Yrotation Zrotation
							JOINT head_ee
							{
								OFFSET	0	179.8	-8.7
								CHANNELS 3  Xrotation Yrotation Zrotation
								End Site
								{
									OFFSET	1	0	0
								}
							}
						}
					}
					JOINT left_clavicle
					{
						OFFSET	-43.2	22.4	-70.8
						CHANNELS 3  Xrotation Yrotation Zrotation
						JOINT left_shoulder
						{
							OFFSET	-93.9	-5.79999	48.7
							CHANNELS 3  Xrotation Yrotation Zrotation
							JOINT left_elbow
							{
								OFFSET	-291.4	-30.8	15.2
								CHANNELS 3  Xrotation Yrotation Zrotation
								JOINT left_lowarm_twist
								{
									OFFSET	-110.7	-3.89999	13.6
									CHANNELS 3  Xrotation Yrotation Zrotation
									JOINT left_hand
									{
										OFFSET	-110.7	-3.89999	13.6
										CHANNELS 3  Xrotation Yrotation Zrotation
										JOINT left_ee
										{
											OFFSET	-80.8	-5.10001	12.1
											CHANNELS 3  Xrotation Yrotation Zrotation
											End Site
											{
												OFFSET	1	0	0
											}
										}
									}
								}
							}
						}
					}
					JOINT right_clavicle
					{
						OFFSET	43.2	22.4	-70.8
						CHANNELS 3  Xrotation Yrotation Zrotation
						JOINT right_shoulder
						{
							OFFSET	93.9	-5.79999	48.7
							CHANNELS 3  Xrotation Yrotation Zrotation
							JOINT right_elbow
							{
								OFFSET	291.4	-30.8	15.2
								CHANNELS 3  Xrotation Yrotation Zrotation
								JOINT right_lowarm_twist
								{
									OFFSET	110.7	-3.89999	13.6
									CHANNELS 3  Xrotation Yrotation Zrotation
									JOINT right_hand
									{
										OFFSET	110.7	-3.89999	13.6
										CHANNELS 3  Xrotation Yrotation Zrotation
										JOINT right_ee
										{
											OFFSET	80.8	-5.10001	12.1
											CHANNELS 3  Xrotation Yrotation Zrotation
											End Site
											{
												OFFSET	1	0	0
											}
										}
									}
								}
							}
						}
					}
				}
			}
		}
	}
	JOINT left_hip
	{
		OFFSET	-82.8	-127.5	0.300001
		CHANNELS 3  Xrotation Yrotation Zrotation
		JOINT left_knee
		{
			OFFSET	-28.2	-396.7	2.2
			CHANNELS 3  Xrotation Yrotation Zrotation
			JOINT left_ankle
			{
				OFFSET	-11.7	-411.3	35.4
				CHANNELS 3  Xrotation Yrotation Zrotation
				JOINT left_toes
				{
					OFFSET	0	-60	-88.6
					CHANNELS 3  Xrotation Yrotation Zrotation
					JOINT left_foot_ee
					{
						OFFSET	-22.5	-16.5	-42.2
						CHANNELS 3  Xrotation Yrotation Zrotation
						End Site
						{
							OFFSET	1	0	0
						}
					}
				}
			}
		}
	}
	JOINT right_hip
	{
		OFFSET	82.8	-127.5	0.300001
		CHANNELS 3  Xrotation Yrotation Zrotation
		JOINT right_knee
		{
			OFFSET	28.2	-396.7	2.2
			CHANNELS 3  Xrotation Yrotation Zrotation
			JOINT right_ankle
			{
				OFFSET	11.7	-411.3	35.4
				CHANNELS 3  Xrotation Yrotation Zrotation
				JOINT right_toes
				{
					OFFSET	0	-60	-88.6
					CHANNELS 3  Xrotation Yrotation Zrotation
					JOINT right_foot_ee
					{
						OFFSET	22.5	-16.5	-42.2
						CHANNELS 3  Xrotation Yrotation Zrotation
						End Site
						{
							OFFSET	1	0	0
						}
					}
				}
			}
		}
	}
}
MOTION
Frames: 13
Frame Time: 0.02
3574.42 741.953 -1474.73 -7.29586606492 78.9342743405 6.66407145371 -0.40627 -0.086904 -1.09236 -0.405606 -0.0172223 -1.09568 -0.404902 0.221063 -1.07329 -0.406507 0.0487936 -1.09473 -14.5069 13.0244 4.31935 -14.8743 22.3091 8.39679 -0.0 0.0 -0.0 6.85375 24.3912 12.1487 -4.01691 -21.2096 69.4317 1.97852 -44.4193 0.807874 22.1301 0.241885 -2.79905 -1.8678 18.5163 -3.75367 -0.0 0.0 -0.0 7.97484 -6.51426 -15.3289 84.5271 -61.8887 -0.339938 0.221326 6.25699 -0.012097 41.482 0.428585 5.16762 -9.09985 -11.1413 72.978 0.0 0.0 0.0 4.5445 14.4691 -6.33459 -19.1863 0.304433 2.91482 23.965 15.4858 -3.24732 -25.8013 0.0 0.0 -0.0 0.0 -0.0 15.1271 5.16678 0.800251 -27.4126 -0.134441 -4.16467 26.5925 18.068 3.86061 -17.369 0.0 0.0 0.0 0.0 0.0 
3574.42 741.953 -1474.73 -6.9649505395 78.4042164755 6.32658160534 -0.40627 -0.086904 -1.09236 -0.405606 -0.0172223 -1.09568 -0.404902 0.221063 -1.07329 -0.406507 0.0487936 -1.09473 -14.5069 13.0244 4.31935 -14.8743 22.3091 8.39679 -0.0 0.0 -0.0 6.85375 24.3912 12.1487 -4.01691 -21.2096 69.4317 1.97852 -44.4193 0.807874 22.1301 0.241885 -2.79905 -1.8678 18.5163 -3.75367 -0.0 0.0 -0.0 7.97484 -6.51426 -15.3289 84.5271 -61.8887 -0.339938 0.221326 6.25699 -0.012097 41.482 0.428585 5.16762 -9.09985 -11.1413 72.978 0.0 0.0 0.0 4.5445 14.4691 -6.33459 -19.1863 0.304433 2.91482 23.965 15.4858 -3.24732 -25.8013 0.0 0.0 -0.0 0.0 -0.0 15.1271 5.16678 0.800251 -27.4126 -0.134441 -4.16467 26.5925 18.068 3.86061 -17.369 0.0 0.0 0.0 0.0 0.0 
3574.42 741.953 -1474.73 -6.65825536104 77.8647547386 6.01319367256 -0.40627 -0.086904 -1.09236 -0.405606 -0.0172223 -1.09568 -0.404902 0.221063 -1.07329 -0.406507 0.0487936 -1.09473 -14.5069 13.0244 4.31935 -14.8743 22.3091 8.39679 -0.0 0.0 -0.0 6.85375 24.3912 12.1487 -4.01691 -21.2096 69.4317 1.97852 -44.4193 0.807874 22.1301 0.241885 -2.79905 -1.8678 18.5163 -3.75367 -0.0 0.0 -0.0 7.97484 -6.51426 -15.3289 84.5271 -61.8887 -0.339938 0.221326 6.25699 -0.012097 41.482 0.428585 5.16762 -9.09985 -11.1413 72.978 0.0 0.0 0.0 4.5445 14.4691 -6.33459 -19.1863 0.304433 2.91482 23.965 15.4858 -3.24732 -25.8013 0.0 0.0 -0.0 0.0 -0.0 15.1271 5.16678 0.800251 -27.4126 -0.134441 -4.16467 26.5925 18.068 3.86061 -17.369 0.0 0.0 0.0 0.0 0.0 
3574.42 741.953 -1474.73 -6.17748562593 76.9083376097 5.52055114878 -0.40627 -0.086904 -1.09236 -0.405606 -0.0172223 -1.09568 -0.404902 0.221063 -1.07329 -0.406507 0.0487936 -1.09473 -14.5069 13.0244 4.31935 -14.8743 22.3091 8.39679 -0.0 0.0 -0.0 6.85375 24.3912 12.1487 -4.01691 -21.2096 69.4317 1.97852 -44.4193 0.807874 22.1301 0.241885 -2.79905 -1.8678 18.5163 -3.75367 -0.0 0.0 -0.0 7.97484 -6.51426 -15.3289 84.5271 -61.8887 -0.339938 0.221326 6.25699 -0.012097 41.482 0.428585 5.16762 -9.09985 -11.1413 72.978 0.0 0.0 0.0 4.5445 14.4691 -6.33459 -19.1863 0.304433 2.91482 23.965 15.4858 -3.24732 -25.8013 0.0 0.0 -0.0 0.0 -0.0 15.1271 5.16678 0.800251 -27.4126 -0.134441 -4.16467 26.5925 18.068 3.86061 -17.369 0.0 0.0 0.0 0.0 0.0 
3568.22270889 741.497 -1479.53375643 -8.35796486749 78.2510574264 7.65572842999 -0.423527 -0.312956 -1.04543 -0.422953 -0.245802 -1.06322 -0.417922 -0.00890392 -1.09123 -0.419537 -0.181121 -1.07613 -13.7675 12.6109 2.97777 -14.1207 22.236 6.84839 -0.0 0.0 -0.0 7.05874 24.1545 12.4605 -4.53841 -21.337 69.3117 1.99617 -44.6735 0.820252 23.3572 0.223488 -2.9547 -2.04772 21.1248 -3.55773 -0.0 0.0 -0.0 7.80028 -6.06246 -15.0194 85.685 -63.0384 0.695719 0.210414 5.95076 -0.0109367 37.9818 0.248472 4.75787 -9.00869 -10.1375 73.2177 0.0 0.0 0.0 3.27152 14.0001 -6.45288 -15.5785 0.322088 2.36165 23.1687 13.965 -3.13986 -23.9071 0.0 0.0 -0.0 0.0 -0.0 15.9704 5.26156 0.430396 -30.4975 -0.0246896 -4.62533 27.7715 12.5312 3.85186 -17.0778 0.0 0.0 0.0 0.0 0.0 
3568.31054829 741.497 -1479.64498655 -7.69265771527 77.2255155285 6.97491741438 -0.423527 -0.312956 -1.04543 -0.422953 -0.245802 -1.06322 -0.417922 -0.00890392 -1.09123 -0.419537 -0.181121 -1.07613 -13.7675 12.6109 2.97777 -14.1207 22.236 6.84839 -0.0 0.0 -0.0 7.05874 24.1545 12.4605 -4.53841 -21.337 69.3117 1.99617 -44.6735 0.820252 23.3572 0.223488 -2.9547 -2.04772 21.1248 -3.55773 -0.0 0.0 -0.0 7.80028 -6.06246 -15.0194 85.685 -63.0384 0.695719 0.210414 5.95076 -0.0109367 37.9818 0.248472 4.75787 -9.00869 -10.1375 73.2177 0.0 0.0 0.0 3.27152 14.0001 -6.45288 -15.5785 0.322088 2.36165 23.1687 13.965 -3.13986 -23.9071 0.0 0.0 -0.0 0.0 -0.0 15.9704 5.26156 0.430396 -30.4975 -0.0246896 -4.62533 27.7715 12.5312 3.85186 -17.0778 0.0 0.0 0.0 0.0 0.0 
3568.40231344 741.497 -1479.75692167 -7.11599280858 76.1766557615 6.38238718913 -0.423527 -0.312956 -1.04543 -0.422953 -0.245802 -1.06322 -0.417922 -0.00890392 -1.09123 -0.419537 -0.181121 -1.07613 -13.7675 12.6109 2.97777 -14.1207 22.236 6.84839 -0.0 0.0 -0.0 7.05874 24.1545 12.4605 -4.53841 -21.337 69.3117 1.99617 -44.6735 0.820252 23.3572 0.223488 -2.9547 -2.04772 21.1248 -3.55773 -0.0 0.0 -0.0 7.80028 -6.06246 -15.0194 85.685 -63.0384 0.695719 0.210414 5.95076 -0.0109367 37.9818 0.248472 4.75787 -9.00869 -10.1375 73.2177 0.0 0.0 0.0 3.27152 14.0001 -6.45288 -15.5785 0.322088 2.36165 23.1687 13.965 -3.13986 -23.9071 0.0 0.0 -0.0 0.0 -0.0 15.9704 5.26156 0.430396 -30.4975 -0.0246896 -4.62533 27.7715 12.5312 3.85186 -17.0778 0.0 0.0 0.0 0.0 0.0 
3568.54111134 741.497 -1479.9185606 -6.411814728 74.6305998247 5.65479071551 -0.423527 -0.312956 -1.04543 -0.422953 -0.245802 -1.06322 -0.417922 -0.00890392 -1.09123 -0.419537 -0.181121 -1.07613 -13.7675 12.6109 2.97777 -14.1207 22.236 6.84839 -0.0 0.0 -0.0 7.05874 24.1545 12.4605 -4.53841 -21.337 69.3117 1.99617 -44.6735 0.820252 23.3572 0.223488 -2.9547 -2.04772 21.1248 -3.55773 -0.0 0.0 -0.0 7.80028 -6.06246 -15.0194 85.685 -63.0384 0.695719 0.210414 5.95076 -0.0109367 37.9818 0.248472 4.75787 -9.00869 -10.1375 73.2177 0.0 0.0 0.0 3.27152 14.0001 -6.45288 -15.5785 0.322088 2.36165 23.1687 13.965 -3.13986 -23.9071 0.0 0.0 -0.0 0.0 -0.0 15.9704 5.26156 0.430396 -30.4975 -0.0246896 -4.62533 27.7715 12.5312 3.85186 -17.0778 0.0 0.0 0.0 0.0 0.0 
3568.71240691 741.497 -1480.10641834 -5.7390548914 72.7832299066 4.953973552 -0.423527 -0.312956 -1.04543 -0.422953 -0.245802 -1.06322 -0.417922 -0.00890392 -1.09123 -0.419537 -0.181121 -1.07613 -13.7675 12.6109 2.97777 -14.1207 22.236 6.84839 -0.0 0.0 -0.0 7.05874 24.1545 12.4605 -4.53841 -21.337 69.3117 1.99617 -44.6735 0.820252 23.3572 0.223488 -2.9547 -2.04772 21.1248 -3.55773 -0.0 0.0 -0.0 7.80028 -6.06246 -15.0194 85.685 -63.0384 0.695719 0.210414 5.95076 -0.0109367 37.9818 0.248472 4.75787 -9.00869 -10.1375 73.2177 0.0 0.0 0.0 3.27152 14.0001 -6.45288 -15.5785 0.322088 2.36165 23.1687 13.965 -3.13986 -23.9071 0.0 0.0 -0.0 0.0 -0.0 15.9704 5.26156 0.430396 -30.4975 -0.0246896 -4.62533 27.7715 12.5312 3.85186 -17.0778 0.0 0.0 0.0 0.0 0.0 
3564.83291272 739.088 -1481.49951161 -5.29922828968 70.1011474749 4.57614016319 -0.289913 -0.0764091 -1.06735 -0.289279 -0.00834018 -1.07005 -0.288789 0.222047 -1.04679 -0.290314 0.0539499 -1.06872 -13.5929 12.6824 2.78737 -13.948 22.4691 6.65792 -0.0 0.0 -0.0 6.79608 24.023 12.1022 -4.7902 -21.772 69.9182 1.99131 -44.6038 0.816839 23.7349 0.217154 -3.00253 -1.95437 19.6519 -3.72402 -0.0 0.0 -0.0 7.92306 -5.92146 -15.2579 81.7159 -63.7975 -2.68549 0.346395 9.73699 -0.0295048 40.2487 0.36226 5.02449 -9.04645 -10.4034 73.5107 0.0 0.0 0.0 3.87981 13.5727 -6.75327 -17.3304 0.317866 2.6304 23.182 16.5948 -3.16287 -24.687 0.0 0.0 -0.0 0.0 -0.0 14.9762 3.91161 0.832557 -28.7623 -0.0894789 -4.36693 26.5436 13.3407 3.72768 -18.1263 0.0 0.0 0.0 0.0 0.0 
3565.29711356 739.088 -1482.11318854 -4.49577180485 66.3575694974 3.71144063595 -0.289913 -0.0764091 -1.06735 -0.289279 -0.00834018 -1.07005 -0.288789 0.222047 -1.04679 -0.290314 0.0539499 -1.06872 -13.5929 12.6824 2.78737 -13.948 22.4691 6.65792 -0.0 0.0 -0.0 6.79608 24.023 12.1022 -4.7902 -21.772 69.9182 1.99131 -44.6038 0.816839 23.7349 0.217154 -3.00253 -1.95437 19.6519 -3.72402 -0.0 0.0 -0.0 7.92306 -5.92146 -15.2579 81.7159 -63.7975 -2.68549 0.346395 9.73699 -0.0295048 40.2487 0.36226 5.02449 -9.04645 -10.4034 73.5107 0.0 0.0 0.0 3.87981 13.5727 -6.75327 -17.3304 0.317866 2.6304 23.182 16.5948 -3.16287 -24.687 0.0 0.0 -0.0 0.0 -0.0 14.9762 3.91161 0.832557 -28.7623 -0.0894789 -4.36693 26.5436 13.3407 3.72768 -18.1263 0.0 0.0 0.0 0.0 0.0 
3551.17174859 734.723 -1493.4069655 -5.82311582237 69.8195002034 5.52197177521 -0.34816 -0.311526 -1.47938 -0.346969 -0.216768 -1.4962 -0.340487 0.111502 -1.50771 -0.343637 -0.127983 -1.5064 -11.914 12.2993 1.48662 -12.1864 22.3755 4.95838 -0.0 0.0 -0.0 6.94109 23.3113 12.3751 -4.80105 -22.1899 71.8531 1.61192 -38.6044 0.56459 25.4411 0.184618 -3.21806 -2.23751 23.2659 -3.59837 -0.0 0.0 -0.0 8.78427 -3.57592 -17.0292 73.9726 -65.1421 -9.07251 0.710702 19.3952 -0.121453 38.2509 0.261428 4.78975 -8.73092 -6.98423 73.6594 0.0 0.0 0.0 3.32745 14.5348 -6.94119 -11.779 0.30301 1.77911 27.8845 16.1292 -3.71124 -22.3777 0.0 0.0 -0.0 0.0 -0.0 14.0767 5.1406 -0.549914 -29.7402 -0.0539314 -4.51279 32.1191 5.19796 4.1882 -19.6456 0.0 0.0 0.0 0.0 0.0 
3541.74121635 734.592 -1509.67201328 -6.9049354498 74.869021226 6.92303637329 -0.464626 -0.214462 -1.6194 -0.463174 -0.110995 -1.62976 -0.459094 0.247018 -1.61475 -0.462733 -0.011067 -1.6335 -11.5846 12.0264 4.33714 -11.7359 19.9817 7.51955 -0.0 0.0 -0.0 6.88714 22.1429 12.4031 -4.15405 -19.7227 72.2306 1.24978 -31.7605 0.355557 27.7301 0.130916 -3.5055 -3.00996 22.7576 -8.34332 -0.0 0.0 -0.0 9.41575 -1.53983 -18.3865 70.0101 -65.0514 -12.7611 0.722144 19.6836 -0.12528 41.0747 0.406338 5.1205 -8.57318 -5.09589 73.7763 0.0 0.0 0.0 3.88337 13.6706 -8.7598 -9.29034 0.2696 1.39873 21.8672 17.5346 -3.01046 -15.0547 0.0 0.0 -0.0 0.0 -0.0 13.8823 6.15865 -2.41817 -32.0706 0.0407958 -4.85784 34.2724 0.225368 4.34999 -19.5655 0.0 0.0 0.0 0.0 0.0 
